# File created by Blade
# Date/Time:  Tue Sep 28 14:35:47 2010
#---------------------------------------------------------
:version 1.10
:name HOM
:units
  mass 1.0
  length 1.000000
  angle deg
:documentation
     Acclaim Skeleton File
:root
   axis xyz
   order TX TY TZ RX RY RZ
   position 0.000000 0.000000 0.000000
   orientation 0 0 0
:bonedata
   begin
      id 1
      name LeftUpLeg_dum
      direction 1.000000 0.000000 0.000000
      length 3.677894
      axis 0.0 0.0 0.0 xyz
   end
   begin
      id 2
      name RightUpLeg_dum
      direction -1.000000 0.000000 0.000000
      length 3.677894
      axis 0.0 0.0 0.0 xyz
   end
   begin
      id 3
      name Spine_dum
      direction 0.000000 1.000000 0.000000
      length 0.039370
      axis 0.0 0.0 0.0 xyz
   end
   begin
      id 4
      name LeftUpLeg
      direction 0.000000 -1.000000 0.000000
      length 18.389491
      axis 0.0 0.0 0.0 xyz
      dof rx ry rz
   end
   begin
      id 5
      name LeftLeg
      direction 0.000000 -1.000000 0.000000
      length 16.918313
      axis 0.0 0.0 0.0 xyz
      dof rx ry rz
   end
   begin
      id 6
      name LeftFoot
      direction 0.000000 -0.258819 0.965926
      length 6.436326
      axis 15.0 0.0 0.0 xyz
      dof rx ry rz
   end
   begin
      id 7
      name LeftToeBase
      direction 0.000000 0.000000 1.000000
      length 2.952750
      axis 0.0 0.0 0.0 xyz
      dof rx ry rz
   end
   begin
      id 8
      name RightUpLeg
      direction 0.000000 -1.000000 0.000000
      length 18.389491
      axis 0.0 0.0 0.0 xyz
      dof rx ry rz
   end
   begin
      id 9
      name RightLeg
      direction 0.000000 -1.000000 0.000000
      length 16.918313
      axis 0.0 0.0 0.0 xyz
      dof rx ry rz
   end
   begin
      id 10
      name RightFoot
      direction 0.000000 -0.258819 0.965926
      length 6.436326
      axis 15.0 0.0 0.0 xyz
      dof rx ry rz
   end
   begin
      id 11
      name RightToeBase
      direction 0.000000 0.000000 1.000000
      length 2.952750
      axis 0.0 0.0 0.0 xyz
      dof rx ry rz
   end
   begin
      id 12
      name Spine
      direction 0.000000 1.000000 0.000000
      length 9.194745
      axis 0.0 0.0 0.0 xyz
      dof rx ry rz
   end
   begin
      id 13
      name Spine1
      direction 0.000000 1.000000 0.000000
      length 0.000000
      axis 0.0 0.0 0.0 xyz
      dof rx ry rz
   end
   begin
      id 14
      name Spine1_dum1
      direction 0.000000 1.000000 0.000000
      length 9.194745
      axis 0.0 0.0 0.0 xyz
   end
   begin
      id 15
      name Spine1_dum2
      direction 0.000000 1.000000 0.000000
      length 9.194745
      axis 0.0 0.0 0.0 xyz
   end
   begin
      id 16
      name Spine1_dum3
      direction 0.000000 1.000000 0.000000
      length 9.194745
      axis 0.0 0.0 0.0 xyz
   end
   begin
      id 17
      name Neck
      direction 0.000000 1.000000 0.000000
      length 4.229598
      axis 0.0 0.0 0.0 xyz
      dof rx ry rz
   end
   begin
      id 18
      name Head
      direction 0.000000 1.000000 0.000000
      length 4.527550
      axis 0.0 0.0 0.0 xyz
      dof rx ry rz
   end
   begin
      id 19
      name LeftShoulder
      direction 1.000000 -0.000004 0.000000
      length 5.516839
      axis 0.0 0.0 -90.0 xyz
      dof rx ry rz
   end
   begin
      id 20
      name LeftArm
      direction 1.000000 -0.000004 0.000000
      length 11.033679
      axis 0.0 0.0 -90.0 xyz
      dof rx ry rz
   end
   begin
      id 21
      name LeftForeArm
      direction 1.000000 -0.000004 0.000000
      length 10.114232
      axis 0.0 0.0 -90.0 xyz
      dof rx ry rz
   end
   begin
      id 22
      name LeftHand
      direction 0.000000 0.000000 0.000000
      length 0.000000
      axis 0.0 0.0 -90.0 xyz
      dof rx ry rz
   end
   begin
      id 23
      name LeftHand_dum1
      direction 0.000000 0.000000 0.000000
      length 0.000000
      axis 0.0 0.0 -90.0 xyz
   end
   begin
      id 24
      name LeftHand_dum2
      direction 1.000000 -0.000004 0.000000
      length 3.937000
      axis 0.0 0.0 -90.0 xyz
   end
   begin
      id 25
      name LeftHandThumb
      direction 0.000000 0.000000 1.000000
      length 3.937000
      axis 0.0 0.0 -90.0 xyz
      dof rx ry rz
   end
   begin
      id 26
      name RightShoulder
      direction -1.000000 -0.000004 0.000000
      length 5.516839
      axis 0.0 0.0 90.0 xyz
      dof rx ry rz
   end
   begin
      id 27
      name RightArm
      direction -1.000000 -0.000004 0.000000
      length 11.033679
      axis 0.0 0.0 90.0 xyz
      dof rx ry rz
   end
   begin
      id 28
      name RightForeArm
      direction -1.000000 -0.000004 0.000000
      length 10.114232
      axis 0.0 0.0 90.0 xyz
      dof rx ry rz
   end
   begin
      id 29
      name RightHand
      direction 0.000000 0.000000 0.000000
      length 0.000000
      axis 0.0 0.0 90.0 xyz
      dof rx ry rz
   end
   begin
      id 30
      name RightHand_dum1
      direction 0.000000 0.000000 0.000000
      length 0.000000
      axis 0.0 0.0 90.0 xyz
   end
   begin
      id 31
      name RightHand_dum2
      direction -1.000000 -0.000004 0.000000
      length 5.393690
      axis 0.0 0.0 90.0 xyz
   end
   begin
      id 32
      name RightHandThumb
      direction 0.000000 0.000000 1.000000
      length 3.937000
      axis 0.0 0.0 90.0 xyz
      dof rx ry rz
   end
:hierarchy
   begin
      root LeftUpLeg_dum RightUpLeg_dum Spine_dum
      LeftUpLeg_dum LeftUpLeg
      RightUpLeg_dum RightUpLeg
      Spine_dum Spine
      LeftUpLeg LeftLeg
      LeftLeg LeftFoot
      LeftFoot LeftToeBase
      RightUpLeg RightLeg
      RightLeg RightFoot
      RightFoot RightToeBase
      Spine Spine1
      Spine1 Spine1_dum1 Spine1_dum2 Spine1_dum3
      Spine1_dum1 Neck
      Spine1_dum2 LeftShoulder
      Spine1_dum3 RightShoulder
      Neck Head
      LeftShoulder LeftArm
      LeftArm LeftForeArm
      LeftForeArm LeftHand
      LeftHand LeftHand_dum1 LeftHand_dum2
      LeftHand_dum1 LeftHandThumb
      RightShoulder RightArm
      RightArm RightForeArm
      RightForeArm RightHand
      RightHand RightHand_dum1 RightHand_dum2
      RightHand_dum1 RightHandThumb
   end

# File created by Blade
# Date/Time:  Tue Sep 28 14:35:42 2010
# Frame Rate: 200.000 fps
#------------------------------------------------------
:FULLY-SPECIFIED
:DEGREES
201
root  -1.521227 37.165583 -77.231955 7.084876 -5.560520 -0.873346
LeftUpLeg  -28.558548 9.505123 0.700516
LeftLeg  29.795220 -0.000000 0.000000
LeftFoot  -0.624030 15.416216 7.011262
LeftToeBase  -11.973675 0.000000 -0.000000
RightUpLeg  -3.242615 -26.249535 2.732797
RightLeg  18.581666 -0.000000 0.000000
RightFoot  -10.442032 8.624669 -17.272811
RightToeBase  -14.769028 0.000000 -0.000000
Spine  -13.742161 -1.220146 -0.040162
Spine1  17.245596 0.066667 4.070600
Neck  8.186951 4.447731 -6.833614
Head  -11.098541 3.064134 1.353057
LeftShoulder  -7.544360 -11.980969 -27.044161
LeftArm  -0.606675 44.776933 -37.531468
LeftForeArm  32.415184 -0.000000 0.000000
LeftHand  6.567018 -8.023050 3.332927
LeftHandThumb  0.000000 -0.000000 0.000000
RightShoulder  4.166928 7.505353 23.437179
RightArm  2.854360 -44.840791 36.890627
RightForeArm  41.930568 -0.000000 0.000000
RightHand  9.244358 17.285092 -0.623047
RightHandThumb  0.000000 -0.000000 0.000000
202
root  -1.511160 37.151990 -77.143305 7.117039 -5.534570 -0.807713
LeftUpLeg  -28.729804 9.418740 0.591271
LeftLeg  29.197460 -0.000000 0.000000
LeftFoot  -0.448651 15.264911 7.032436
LeftToeBase  -11.850542 0.000000 -0.000000
RightUpLeg  -3.136503 -26.185377 2.619312
RightLeg  18.558695 -0.000000 0.000000
RightFoot  -10.454690 8.474713 -17.269224
RightToeBase  -14.938363 0.000000 -0.000000
Spine  -13.703183 -1.221924 -0.104050
Spine1  17.277608 0.083920 4.014631
Neck  8.117826 4.410771 -6.784355
Head  -11.118986 3.086250 1.360554
LeftShoulder  -7.450862 -11.997042 -27.096696
LeftArm  -0.498790 44.768612 -37.451249
LeftForeArm  32.312205 -0.000000 0.000000
LeftHand  6.523379 -7.963251 3.284672
LeftHandThumb  0.000000 -0.000000 0.000000
RightShoulder  4.172097 7.478486 23.376349
RightArm  2.986714 -44.769407 36.842117
RightForeArm  42.362058 -0.000000 0.000000
RightHand  9.357312 17.150091 -0.569394
RightHandThumb  0.000000 -0.000000 0.000000
203
root  -1.502987 37.137742 -77.043390 7.166987 -5.519711 -0.717946
LeftUpLeg  -28.884610 9.294566 0.468991
LeftLeg  28.563662 -0.000000 0.000000
LeftFoot  -0.307363 15.129511 6.970321
LeftToeBase  -11.788698 0.000000 -0.000000
RightUpLeg  -2.987946 -26.120024 2.472027
RightLeg  18.482073 -0.000000 0.000000
RightFoot  -10.573526 8.354818 -17.227843
RightToeBase  -14.647533 0.000000 -0.000000
Spine  -13.686454 -1.228447 -0.185180
Spine1  17.282444 0.103346 3.943156
Neck  8.051393 4.284315 -6.743686
Head  -11.114961 3.040970 1.347885
LeftShoulder  -7.353567 -11.958147 -27.162155
LeftArm  -0.404524 44.830313 -37.376877
LeftForeArm  32.213388 -0.000000 0.000000
LeftHand  6.639080 -9.733765 3.622010
LeftHandThumb  0.000000 -0.000000 0.000000
RightShoulder  4.179475 7.483917 23.308858
RightArm  3.070675 -44.846916 36.815967
RightForeArm  42.794592 -0.000000 0.000000
RightHand  9.368811 17.231268 -0.622282
RightHandThumb  0.000000 -0.000000 0.000000
204
root  -1.493560 37.124120 -76.951275 7.199240 -5.504004 -0.650415
LeftUpLeg  -29.040358 9.203751 0.383987
LeftLeg  27.996930 -0.000000 0.000000
LeftFoot  -0.170152 14.963107 6.920291
LeftToeBase  -11.749089 0.000000 -0.000000
RightUpLeg  -2.888060 -26.070066 2.364812
RightLeg  18.480813 -0.000000 0.000000
RightFoot  -10.571301 8.190789 -17.294810
RightToeBase  -14.843665 0.000000 -0.000000
Spine  -13.649000 -1.231412 -0.252511
Spine1  17.332819 0.119814 3.887095
Neck  7.975566 4.309998 -6.686440
Head  -11.201320 3.118353 1.360006
LeftShoulder  -7.260420 -11.983027 -27.211594
LeftArm  -0.299797 44.807405 -37.274141
LeftForeArm  32.063038 -0.000000 0.000000
LeftHand  6.441636 -7.918040 3.330304
LeftHandThumb  0.000000 -0.000000 0.000000
RightShoulder  4.222133 7.616991 23.266686
RightArm  3.091551 -45.022662 36.826257
RightForeArm  43.207210 -0.000000 0.000000
RightHand  9.587382 17.162694 -0.635042
RightHandThumb  0.000000 -0.000000 0.000000
205
root  -1.483528 37.108861 -76.855883 7.239092 -5.490263 -0.583021
LeftUpLeg  -29.195996 9.067796 0.304153
LeftLeg  27.402409 -0.000000 0.000000
LeftFoot  -0.064966 14.849222 6.786823
LeftToeBase  -11.580511 0.000000 -0.000000
RightUpLeg  -2.770832 -25.984391 2.251916
RightLeg  18.452786 -0.000000 0.000000
RightFoot  -10.632520 8.015637 -17.267772
RightToeBase  -14.689857 0.000000 -0.000000
Spine  -13.603902 -1.235364 -0.321095
Spine1  17.364280 0.136340 3.825237
Neck  7.869806 4.281388 -6.652602
Head  -11.254110 3.103340 1.370856
LeftShoulder  -7.173186 -11.987863 -27.262855
LeftArm  -0.201147 44.802407 -37.180022
LeftForeArm  31.980869 -0.000000 0.000000
LeftHand  6.397867 -7.996625 3.219684
LeftHandThumb  0.000000 -0.000000 0.000000
RightShoulder  4.245331 7.681436 23.206727
RightArm  3.147258 -45.106255 36.806197
RightForeArm  43.649827 -0.000000 0.000000
RightHand  9.715637 17.142626 -0.637240
RightHandThumb  0.000000 -0.000000 0.000000
206
root  -1.473073 37.091671 -76.759774 7.281827 -5.477571 -0.515499
LeftUpLeg  -29.348596 8.888429 0.239905
LeftLeg  26.830463 -0.000000 0.000000
LeftFoot  0.068487 14.765100 6.829481
LeftToeBase  -11.534782 0.000000 -0.000000
RightUpLeg  -2.642795 -25.902102 2.130070
RightLeg  18.416691 -0.000000 0.000000
RightFoot  -10.743006 7.856854 -17.287407
RightToeBase  -14.574379 0.000000 -0.000000
Spine  -13.566786 -1.240407 -0.392175
Spine1  17.395076 0.152717 3.764132
Neck  7.772517 4.255692 -6.605295
Head  -11.280558 3.108601 1.380523
LeftShoulder  -7.078869 -12.017238 -27.323991
LeftArm  -0.120912 44.823015 -37.092713
LeftForeArm  31.850543 -0.000000 0.000000
LeftHand  6.442784 -8.085428 3.206223
LeftHandThumb  0.000000 -0.000000 0.000000
RightShoulder  4.278788 7.803655 23.152343
RightArm  3.161109 -45.268726 36.807224
RightForeArm  44.090221 -0.000000 0.000000
RightHand  9.811080 17.041293 -0.725315
RightHandThumb  0.000000 -0.000000 0.000000
207
root  -1.461089 37.076359 -76.662013 7.320411 -5.461432 -0.448519
LeftUpLeg  -29.495483 8.706029 0.172364
LeftLeg  26.250113 -0.000000 0.000000
LeftFoot  0.205401 14.712219 6.758579
LeftToeBase  -11.420694 0.000000 -0.000000
RightUpLeg  -2.538974 -25.799357 2.021638
RightLeg  18.405269 -0.000000 0.000000
RightFoot  -10.745342 7.687528 -17.204038
RightToeBase  -14.538782 0.000000 -0.000000
Spine  -13.526055 -1.248504 -0.463405
Spine1  17.437767 0.165644 3.702347
Neck  7.679141 4.224398 -6.553796
Head  -11.320763 3.118752 1.378950
LeftShoulder  -6.985962 -12.037032 -27.382849
LeftArm  -0.033407 44.837809 -37.001909
LeftForeArm  31.755623 -0.000000 0.000000
LeftHand  6.351800 -8.029309 3.271433
LeftHandThumb  0.000000 -0.000000 0.000000
RightShoulder  4.309571 7.915300 23.096038
RightArm  3.190183 -45.391821 36.796210
RightForeArm  44.524302 -0.000000 0.000000
RightHand  9.915496 16.955838 -0.729124
RightHandThumb  0.000000 -0.000000 0.000000
208
root  -1.450337 37.057722 -76.562871 7.366781 -5.448669 -0.381592
LeftUpLeg  -29.643758 8.576581 0.091854
LeftLeg  25.628315 -0.000000 0.000000
LeftFoot  0.323440 14.638136 6.574175
LeftToeBase  -11.345947 0.000000 -0.000000
RightUpLeg  -2.411735 -25.714125 1.901671
RightLeg  18.380035 -0.000000 0.000000
RightFoot  -10.862298 7.517672 -17.198830
RightToeBase  -14.323012 0.000000 -0.000000
Spine  -13.487664 -1.255250 -0.534410
Spine1  17.468860 0.180305 3.642666
Neck  7.580853 4.197546 -6.506574
Head  -11.353184 3.127181 1.369896
LeftShoulder  -6.898095 -12.038304 -27.434288
LeftArm  0.058879 44.847466 -36.899107
LeftForeArm  31.675703 -0.000000 0.000000
LeftHand  6.330860 -8.171953 3.243657
LeftHandThumb  0.000000 -0.000000 0.000000
RightShoulder  4.337781 8.009938 23.042517
RightArm  3.228003 -45.484959 36.780797
RightForeArm  44.948678 -0.000000 0.000000
RightHand  10.062289 16.729413 -0.747184
RightHandThumb  0.000000 -0.000000 0.000000
209
root  -1.432549 37.037760 -76.432651 7.475638 -5.372891 -0.193693
LeftUpLeg  -29.710785 8.405048 -0.146950
LeftLeg  24.768064 -0.000000 0.000000
LeftFoot  0.472112 14.628166 6.613524
LeftToeBase  -11.224447 0.000000 -0.000000
RightUpLeg  -2.219387 -25.699313 1.668364
RightLeg  18.156805 -0.000000 0.000000
RightFoot  -10.987125 7.378647 -17.128146
RightToeBase  -14.230688 0.000000 -0.000000
Spine  -13.566499 -1.276272 -0.660179
Spine1  17.377041 0.204110 3.540200
Neck  7.608576 4.035465 -6.448552
Head  -11.242374 3.190043 1.318531
LeftShoulder  -6.810485 -11.762001 -27.553358
LeftArm  0.278935 44.840723 -36.641474
LeftForeArm  31.572925 -0.000000 0.000000
LeftHand  6.336194 -8.338088 3.193184
LeftHandThumb  0.000000 -0.000000 0.000000
RightShoulder  4.254901 7.759292 22.926104
RightArm  3.408202 -45.385688 36.683771
RightForeArm  45.489041 -0.000000 0.000000
RightHand  9.738601 16.695717 -0.947169
RightHandThumb  0.000000 -0.000000 0.000000
210
root  -1.419770 37.021418 -76.343837 7.506594 -5.371402 -0.134258
LeftUpLeg  -29.877943 8.142679 -0.162255
LeftLeg  24.234277 -0.000000 0.000000
LeftFoot  0.635559 14.630960 6.400410
LeftToeBase  -11.172489 0.000000 -0.000000
RightUpLeg  -2.135431 -25.653451 1.563155
RightLeg  18.196006 -0.000000 0.000000
RightFoot  -10.988691 7.207533 -17.111386
RightToeBase  -14.386471 0.000000 -0.000000
Spine  -13.503266 -1.288369 -0.739133
Spine1  17.484085 0.213485 3.480448
Neck  7.485615 4.034267 -6.418905
Head  -11.439057 3.175066 1.349242
LeftShoulder  -6.697289 -11.870066 -27.603105
LeftArm  0.348258 44.847887 -36.554889
LeftForeArm  31.482685 -0.000000 0.000000
LeftHand  6.307194 -8.536342 3.257703
LeftHandThumb  0.000000 -0.000000 0.000000
RightShoulder  4.332913 8.060718 22.920196
RightArm  3.371930 -45.611787 36.710863
RightForeArm  45.771322 -0.000000 0.000000
RightHand  10.273428 16.573358 -0.831189
RightHandThumb  0.000000 -0.000000 0.000000
